PathFileType	4	(X/Y/Z)	/home/utkubuntu/opensim/opensim_mycode/release_code/bioimitation/imitation_envs/data/02905/02905_PRE/experimental_data/task.trc
DataRate	CameraRate	NumFrames	NumMarkers	Units	OrigDataRate	OrigDataStartFrame	OrigNumFrames
100.000000	100.000000	4	53	mm	100.000000	355	406
Frame#	Time	C7			CLAV			LANK			LASI			LBHD			LELB			LFHD			LFIN			LFMH			LHEE			LKNE			LKNI			LMED			LMET			LMIF			LPSI			LSHO			LTAD			LTHAP			LTHI			LTIAD			LTIB			LTOE			LTTU			LWRA			LWRB			RANK			RASI			RBAK			RBHD			RELB			RFHD			RFIN			RFMH			RHEE			RKNE			RKNI			RMED			RMET			RMIF			RPSI			RSHO			RTAD			RTHAP			RTHI			RTIAD			RTIB			RTOE			RTTU			RWRA			RWRB			STRN			T10			
		X1	Y1	Z1	X2	Y2	Z2	X3	Y3	Z3	X4	Y4	Z4	X5	Y5	Z5	X6	Y6	Z6	X7	Y7	Z7	X8	Y8	Z8	X9	Y9	Z9	X10	Y10	Z10	X11	Y11	Z11	X12	Y12	Z12	X13	Y13	Z13	X14	Y14	Z14	X15	Y15	Z15	X16	Y16	Z16	X17	Y17	Z17	X18	Y18	Z18	X19	Y19	Z19	X20	Y20	Z20	X21	Y21	Z21	X22	Y22	Z22	X23	Y23	Z23	X24	Y24	Z24	X25	Y25	Z25	X26	Y26	Z26	X27	Y27	Z27	X28	Y28	Z28	X29	Y29	Z29	X30	Y30	Z30	X31	Y31	Z31	X32	Y32	Z32	X33	Y33	Z33	X34	Y34	Z34	X35	Y35	Z35	X36	Y36	Z36	X37	Y37	Z37	X38	Y38	Z38	X39	Y39	Z39	X40	Y40	Z40	X41	Y41	Z41	X42	Y42	Z42	X43	Y43	Z43	X44	Y44	Z44	X45	Y45	Z45	X46	Y46	Z46	X47	Y47	Z47	X48	Y48	Z48	X49	Y49	Z49	X50	Y50	Z50	X51	Y51	Z51	X52	Y52	Z52	X53	Y53	Z53	

356	3.55	2357.342041015625	1434.157958984375	-282.5599975585934	2462.574951171875	1336.4990234375	-277.2850036621091	2038.149047851562	155.7779998779298	-378.6119995117187	2449.820068359375	923.7650146484376	-405.2349853515623	2406.94189453125	1543.951049804688	-349.5629882812497	2459.468017578125	1048.76904296875	-533.7999877929685	2555.0849609375	1602.592041015625	-313.5740051269528	2673.205078125	860.6599731445314	-525.8839721679685	2120.1708984375	33.2929992675782	-318.1220092773438	1985.097045898438	157.5540008544923	-336.4679870605468	2288.748046875	461.9859924316407	-423.6640014648436	2312.18603515625	440.4100036621094	-311.4100036621093	2067.51904296875	155.8730010986329	-304.0580139160156	2081.4208984375	36.5449981689454	-400.0459899902344	2103.9140625	94.33799743652352	-360.10400390625	2294.93798828125	940.7199707031251	-323.585998535156	2400.576904296875	1366.177978515625	-451.3330078124997	2390.81005859375	503.6149902343751	-372.6380004882811	2447.40087890625	669.6640014648439	-374.938995361328	2312.2119140625	558.3259887695314	-468.282012939453	2160.76708984375	229.8410034179688	-357.2189941406249	2163.326904296875	332.6369934082032	-461.0010070800781	2115.781982421875	35.50899887084969	-362.2539978027344	2291.699951171875	361.3330078125001	-376.0950012207031	2654.55810546875	905.1240234375001	-483.2579956054685	2623.0810546875	873.2239990234376	-533.6420288085935	2587.784912109375	70.64900207519536	-182.4680023193359	2468.31298828125	942.8170166015625	-162.5579986572264	2292.327880859375	1311.7509765625	-164.533996582031	2395.947021484375	1522.071044921875	-190.514007568359	2279.7470703125	1059.385009765625	-61.6139984130857	2538.02294921875	1583.119018554688	-191.5220031738278	2356.425048828125	764.093994140625	-24.99600028991682	2732.01904296875	40.6290016174317	-242.8549957275391	2532.2509765625	30.99699974060064	-217.1049957275391	2555.346923828125	475.8519897460938	-151.6770019531249	2546.340087890625	471.8070068359376	-270.9670104980468	2590.214111328125	87.01699829101568	-265.9540100097656	2692.31689453125	25.62599945068363	-157.4909973144531	2678.705078125	68.80200195312504	-212.2749938964843	2302.778076171875	944.4329833984375	-219.6450042724607	2377.035888671875	1359.140991210938	-100.956001281738	2593.76708984375	579.333984375	-197.1499938964842	2560.919921875	743.1890258789062	-176.7969970703123	2525.445068359375	583.260009765625	-93.35199737548815	2610.29296875	268.0220031738282	-216.4869995117187	2561.964111328125	287.2569885253906	-105.3489990234374	2722.135986328125	40.50199890136723	-199.2940063476562	2608.7099609375	413.3280029296876	-210.563995361328	2371.962890625	818.7969970703125	-70.07199859619122	2314.050048828125	811.2360229492188	-30.60499954223615	2488.81005859375	1179.017944335938	-280.5209960937497	2279.10107421875	1133.093994140625	-283.0530090332029	
357	3.56	2368.346923828125	1434.615966796875	-281.0020141601559	2473.8779296875	1337.392944335938	-275.5429992675778	2050.39599609375	161.4510040283204	-378.3559875488281	2462.193115234375	923.6450195312501	-403.2890014648435	2418.028076171875	1544.661010742188	-347.4960021972653	2467.05810546875	1048.81396484375	-531.3480224609373	2566.095947265625	1603.48095703125	-311.420989990234	2678.658935546875	857.9879760742189	-523.7150268554685	2122.64111328125	33.77099990844734	-317.72900390625	1998.112060546875	166.7819976806641	-335.0889892578124	2308.31005859375	460.2369995117189	-424.2990112304686	2333.89697265625	436.6610107421876	-312.8710021972655	2080.471923828125	159.5579986572266	-304.0499877929687	2084.738037109375	39.27099990844735	-399.14599609375	2111.93896484375	95.3679962158204	-360.1390075683594	2307.201904296875	941.4530029296876	-323.4100036621091	2412.202880859375	1367.02001953125	-449.6809997558591	2410.72412109375	501.5209960937501	-374.3200073242186	2463.027099609375	669.4279785156251	-373.3880004882811	2330.64697265625	556.4530029296876	-468.5780029296874	2172.89404296875	230.7709960937501	-357.9179992675781	2178.5048828125	335.9249877929689	-460.3850097656249	2118.444091796875	35.77899932861336	-361.739990234375	2309.907958984375	358.8110046386719	-378.5599975585937	2660.6640625	902.9769897460939	-481.3240051269529	2628.636962890625	871.1450195312501	-531.2860107421873	2588.802978515625	70.28199768066411	-182.417007446289	2480.430908203125	944.7249755859375	-161.231002807617	2303.7880859375	1312.047973632812	-163.2749938964841	2407.155029296875	1522.485961914062	-188.4750061035153	2292.655029296875	1059.68896484375	-60.00199890136695	2549.093994140625	1583.776977539062	-189.4010009765622	2370.0458984375	764.4500122070312	-23.2070007324217	2732.681884765625	38.5239982604981	-242.9440002441406	2532.81298828125	31.40900039672857	-216.9539947509766	2564.39306640625	475.8569946289063	-150.6360015869139	2553.846923828125	471.7179870605469	-269.6180114746093	2591.26904296875	86.74900054931646	-265.9450073242188	2692.635009765625	24.45599937438968	-155.8289947509766	2679.4970703125	67.64499664306645	-212.1920013427734	2314.860107421875	946.0469970703125	-219.3749999999998	2387.927978515625	1359.925048828125	-99.54599761962861	2603.30908203125	579.7360229492188	-197.1510009765624	2571.784912109375	744.1279907226562	-176.1929931640623	2537.85498046875	584.4910278320312	-91.83300018310534	2614.845947265625	267.0729980468751	-216.3370056152343	2569.112060546875	286.8599853515625	-104.3939971923828	2723.027099609375	39.04600143432621	-199.0599975585938	2615.989013671875	412.3099975585938	-210.0059967041015	2385.530029296875	819.2659912109375	-68.27100372314435	2327.31494140625	811.6179809570312	-28.68899917602521	2500.863037109375	1180.098022460938	-278.7269897460935	2291.071044921875	1133.447021484375	-282.3489990234373	
358	3.57	2379.297119140625	1435.058959960938	-279.5159912109372	2485.117919921875	1338.255981445312	-273.9140014648435	2064.093994140625	167.009994506836	-378.3580017089843	2474.097900390625	923.4479980468751	-401.4379882812498	2429.0869140625	1545.378051757812	-345.5929870605465	2474.5859375	1048.858032226563	-528.8829956054685	2577.06591796875	1604.307983398438	-309.3749999999997	2683.552978515625	854.8989868164064	-521.637023925781	2125.906982421875	35.02500152587898	-317.3200073242188	2012.489013671875	176.4179992675782	-334.2520141601562	2328.56689453125	458.1210021972657	-424.6560058593749	2356.64404296875	432.6709899902344	-314.105987548828	2093.908935546875	163.2579956054688	-303.9460144042968	2088.85400390625	42.91799926757821	-398.06201171875	2120.583984375	96.83699798583993	-359.8739929199219	2319.06103515625	942.1370239257814	-322.9049987792966	2423.62109375	1367.81201171875	-448.1340026855466	2431.112060546875	499.2600097656251	-376.5440063476561	2478.863037109375	669.0969848632814	-372.3580017089842	2349.882080078125	554.0330200195314	-468.886993408203	2186.325927734375	231.7149963378907	-358.4110107421874	2194.64794921875	339.0469970703126	-459.5849914550781	2121.60791015625	36.84799957275398	-361.0199890136719	2329.009033203125	356.3080139160157	-380.6770019531249	2666.468994140625	900.4719848632814	-479.4869995117185	2633.8330078125	868.8469848632814	-529.0479736328123	2589.589111328125	69.94000244140629	-182.3930053710937	2492.5380859375	946.219970703125	-160.0189971923826	2315.240966796875	1312.262939453125	-162.044998168945	2418.22705078125	1522.89501953125	-186.5950012207028	2305.426025390625	1060.02001953125	-58.37499999999977	2560.095947265625	1584.364013671875	-187.3930053710934	2383.926025390625	764.9219970703125	-21.34600067138655	2733.22412109375	37.04100036621099	-242.9389953613281	2533.261962890625	31.7010002136231	-216.8899993896484	2572.337890625	475.5650024414063	-149.3509979248046	2561.01806640625	471.3330078125001	-268.1199951171874	2592.14892578125	86.53800201416021	-265.9360046386719	2692.798095703125	23.62899971008304	-154.3190002441406	2680.049072265625	66.84100341796879	-212.0169982910156	2326.659912109375	947.5770263671875	-218.6990051269529	2398.802978515625	1360.68701171875	-98.1989974975583	2612.27392578125	579.3779907226562	-196.4880065917967	2582.04296875	743.9940185546875	-175.3220062255858	2548.093017578125	584.906005859375	-90.3919982910155	2618.9990234375	266.1499938964844	-215.8229980468749	2574.5048828125	286.260986328125	-103.5910034179687	2723.757080078125	38.09299850463871	-198.6860046386719	2622.666015625	411.2579956054688	-208.8520050048827	2399.25390625	819.8510131835938	-66.3830032348631	2340.77392578125	812.0910034179688	-26.6849994659422	2512.8349609375	1181.156005859375	-277.0830078124997	2302.929931640625	1133.719970703125	-281.502990722656	
359	3.58	2390.193115234375	1435.525024414062	-278.1019897460934	2496.303955078125	1339.094970703125	-272.4169921874997	2078.93798828125	172.623992919922	-378.5360107421874	2485.493896484375	923.1599731445314	-399.804992675781	2440.097900390625	1546.142944335938	-343.8590087890622	2482.095947265625	1048.837036132813	-526.4110107421873	2588.010009765625	1605.100952148438	-307.4580078124997	2687.93603515625	851.4180297851564	-519.6560058593748	2130.06494140625	37.22900009155281	-316.9039916992188	2028.16796875	186.5789947509766	-333.9280090332031	2349.35400390625	455.7269897460939	-424.6099853515624	2379.8740234375	428.8949890136719	-314.8179931640624	2107.77587890625	167.259994506836	-303.7950134277343	2093.85205078125	47.68899917602548	-396.7510070800781	2129.781982421875	99.04599761962899	-359.3569946289062	2330.4951171875	942.6589965820314	-322.0310058593748	2434.8359375	1368.532958984375	-446.7170104980466	2451.785888671875	497.0610046386719	-378.7730102539061	2494.873046875	668.7639770507814	-371.9320068359373	2369.472900390625	551.1599731445314	-468.9209899902343	2201.198974609375	232.9450073242188	-358.6080017089843	2211.9130859375	341.6530151367189	-458.7109985351562	2125.404052734375	39.05400085449227	-360.0599975585938	2348.68310546875	354.0050048828126	-381.9379882812499	2672.02197265625	897.6250000000001	-477.7590026855466	2638.679931640625	866.3469848632814	-526.940979003906	2590.10498046875	69.67299652099614	-182.3710021972656	2504.556884765625	947.3480224609375	-158.9960021972654	2326.611083984375	1312.426025390625	-160.8029937744138	2429.162109375	1523.342041015625	-184.8880004882809	2318.04296875	1060.307983398438	-56.71599960327125	2571.035888671875	1584.906982421875	-185.5169982910153	2398.06201171875	765.4860229492188	-19.42300033569319	2733.580078125	36.08800125122076	-243.0070037841797	2533.486083984375	31.90099906921392	-216.8390045166016	2579.323974609375	475.1799926757813	-147.9290008544921	2567.800048828125	470.9869995117188	-266.6130065917968	2592.803955078125	86.42800140380865	-265.9169921875	2692.8740234375	23.10499954223636	-153.22900390625	2680.39501953125	66.3349990844727	-211.8809967041015	2338.193115234375	948.9829711914062	-217.6179962158201	2409.73095703125	1361.3740234375	-96.89199829101533	2620.636962890625	578.3720092773438	-195.0520019531249	2592.037109375	743.0900268554688	-173.9230041503905	2556.39404296875	584.89599609375	-89.05699920654284	2622.758056640625	265.3460083007813	-215.0160064697265	2578.409912109375	285.6759948730469	-102.8399963378906	2724.294921875	37.5219993591309	-198.3939971923828	2628.7548828125	410.2969970703126	-207.3569946289062	2413.14111328125	820.5180053710938	-64.43800354003888	2354.508056640625	812.6119995117188	-24.622999191284	2524.68798828125	1182.171997070312	-275.6239929199216	2314.631103515625	1133.969970703125	-280.5469970703123	
